PathFileType	4	(X/Y/Z)	OpenSim_Sub10_CSStiffKnee_Gyro.trc
DataRate	CameraRate	NumFrames	NumMarkers	Units	OrigDataRate	OrigDataStartFrame	OrigNumFrames
100	100	34	8	m	100	2044	8174
Frame#	Time	torso_imu_offset_imu	pelvis_imu_offset_imu	tibia_r_imu_offset_imu	femur_r_imu_offset_imu	tibia_l_imu_offset_imu	femur_l_imu_offset_imu	toes_r_imu_offset_imu	toes_l_imu_offset_imu
				X1	Y1	Z1	X2	Y2	Z2	X3	Y3	Z3	X4	Y4	Z4	X5	Y5	Z5	X6	Y6	Z6	X7	Y7	Z7	X8		Y8	Z8	

2044	20.43000000	0.90373516	0.23734177	0.30442248	0.76710967	0.21008248	0.02088091	-0.71986876	-0.01449360	0.00578733	-1.05653350	0.50208833	-1.86487446	-1.71996920	-0.32787396	2.31031197	0.86999575	0.24705201	-1.92517709	-0.20400705	-0.21491564	0.19037988	-0.59652647	-0.55358911	0.57927282
2045	20.44000000	0.83117775	0.25776675	0.38710220	0.57291423	0.06973464	-0.10960543	-0.32935999	-0.07534305	0.08256751	-0.47113105	0.66351701	-1.50030511	-0.36362559	-0.27265688	1.83030840	0.49330647	0.08503566	-1.81845162	-0.08183935	-0.17858332	0.16958404	-0.94238703	-0.01340373	0.28132857
2046	20.45000000	0.71383425	0.25405545	0.47215380	0.44667297	-0.04873706	-0.24298774	-0.01852281	-0.12704762	-0.04038509	0.14688488	0.65221393	-1.28787336	0.79011085	-0.18590661	1.09767713	0.00331891	-0.00906304	-1.56229278	-0.01618282	-0.16916448	0.17797363	-0.55733568	0.48447718	0.08078186
2047	20.46000000	0.68584708	0.23110073	0.54230602	0.39224007	-0.11985164	-0.36122316	0.10858087	-0.23943887	-0.09806485	0.67460625	0.51763168	-1.15662039	1.54595654	-0.14969994	0.37514492	-0.38532128	-0.04650741	-1.17240237	-0.04390403	-0.19171550	0.18188487	-0.26056026	1.13814082	0.03176938
2048	20.47000000	0.74483910	0.17754997	0.53790959	0.40653332	-0.13851670	-0.46760600	-0.21374895	-0.20251037	-0.08582238	0.95875588	0.33684162	-1.14763714	1.94803593	-0.07735641	-0.19931602	-0.57246280	-0.13407558	-0.75285857	-0.06165732	-0.20245600	0.15059621	-0.17640724	1.72651535	0.13665220
2049	20.48000000	0.87454654	0.12782678	0.46443516	0.46737057	-0.11494663	-0.54499833	-0.49002715	-0.05151843	-0.05461795	0.97002551	0.17035081	-1.27610001	1.98261407	-0.03037053	-0.66629349	-0.62675786	-0.17316095	-0.45342435	0.00668175	-0.17783432	0.08947948	0.12457842	2.23015308	0.35876355
2050	20.49000000	1.00702258	0.04533580	0.35996586	0.53946814	-0.05897085	-0.59434616	-0.34496966	-0.01816328	-0.03214650	0.86329502	0.04681819	-1.40454406	1.86970967	-0.06842138	-1.11467397	-0.60697075	-0.08842402	-0.30702185	0.09420234	-0.13542342	0.04781722	0.35525217	2.67946550	0.65351076
2051	20.50000000	0.99926060	-0.01788271	0.26308169	0.59831594	0.00987386	-0.62445118	-0.20984842	-0.05781159	-0.04411531	0.76024381	-0.04984170	-1.47132179	1.77662107	-0.10681979	-1.55651798	-0.52095755	0.02125103	-0.29470112	0.09861884	-0.10526260	0.01472890	0.45730039	3.06769350	0.95937592
2052	20.51000000	0.89707979	-0.01625360	0.22359334	0.62729013	0.07346691	-0.63213042	-0.24994428	-0.09259101	-0.05540620	0.59628319	-0.11999723	-1.50869229	1.76049971	-0.10940278	-1.95713253	-0.44012055	0.09972930	-0.35227126	0.08297349	-0.06771731	-0.02242411	0.55409882	3.36445530	1.19520320
2053	20.52000000	0.82783227	0.00410982	0.23070445	0.64289484	0.12494585	-0.60470302	-0.26847825	-0.12622066	-0.07500858	0.35194406	-0.12808254	-1.49232237	1.81495062	-0.08775111	-2.27177566	-0.39488685	0.15589817	-0.42683121	0.06880930	-0.04013712	-0.05298575	0.64261424	3.57050847	1.31579806
2054	20.53000000	0.79309486	0.01521570	0.22239151	0.64092984	0.16519017	-0.55080943	-0.18480669	-0.13733580	-0.12969260	0.14713364	-0.04450971	-1.41012962	1.92335370	-0.04348391	-2.51224100	-0.43152664	0.19654632	-0.51311567	0.07559117	-0.00715974	-0.09904791	0.66139799	3.70981063	1.34066616
2055	20.54000000	0.79253147	-0.01366651	0.19768992	0.62586133	0.19161223	-0.47877712	-0.01971508	-0.14402522	-0.20954727	0.06576871	0.08488365	-1.29216542	1.95885669	0.00611780	-2.65183331	-0.50875491	0.23740554	-0.59305854	0.10292273	0.04989461	-0.14822243	0.62909020	3.71990432	1.28189804
2056	20.55000000	0.83233494	-0.10914774	0.17970015	0.62711609	0.21301217	-0.38288809	0.07985750	-0.13574212	-0.26258646	0.08888030	0.17239693	-1.16231889	1.86030359	0.05250681	-2.72043268	-0.59723698	0.29112747	-0.67445161	0.14278380	0.09682925	-0.17082415	0.64930484	3.56978973	1.15802322
2057	20.56000000	0.85495983	-0.22336247	0.14199903	0.63073205	0.23369115	-0.27154434	0.13541394	-0.12779676	-0.28227599	0.15241837	0.17250086	-1.04301568	1.68899846	0.10705720	-2.76910625	-0.66148720	0.36399512	-0.77023492	0.11537478	0.10482960	-0.16365029	0.64325842	3.32566493	0.98832571
2058	20.57000000	0.91519201	-0.29948192	0.08243378	0.61289897	0.24967417	-0.15668033	0.22252491	-0.15760314	-0.33488834	0.21731193	0.12160756	-0.96780486	1.44247521	0.16177333	-2.78129044	-0.66959804	0.43819375	-0.85542540	0.09329164	0.12146362	-0.16031797	0.48182578	3.05986972	0.80023984
2059	20.58000000	0.98798727	-0.35290626	0.03326544	0.57827872	0.24395898	-0.05533922	0.30997780	-0.17176429	-0.42448171	0.25157307	0.06665672	-0.94296267	1.11785647	0.20021459	-2.76020025	-0.61508358	0.50088626	-0.92563675	0.11190005	0.14529810	-0.16915095	0.29850294	2.71961409	0.60818096
2060	20.59000000	0.97815194	-0.38738194	0.03203760	0.56187387	0.21723534	0.02481733	0.33973995	-0.16037581	-0.50263225	0.28770482	0.00374466	-0.96000082	0.78789524	0.23501553	-2.71453816	-0.50460242	0.53363214	-1.00177675	0.13399595	0.14000562	-0.16789744	0.23328360	2.37558182	0.35953537
2061	20.60000000	0.96215365	-0.42109816	0.06785888	0.56420410	0.19467899	0.08059442	0.31732879	-0.14578991	-0.53554183	0.35227130	-0.05512563	-0.98283502	0.50614153	0.27982583	-2.65657809	-0.35444368	0.56228746	-1.09124298	0.11531177	0.12556606	-0.15926805	0.27035029	2.18691313	0.01794122
2062	20.61000000	0.93699417	-0.43217546	0.12088338	0.56590356	0.18939175	0.12858668	0.28869909	-0.14594647	-0.57185778	0.44486288	-0.08768048	-0.99343600	0.23556279	0.31123836	-2.60211091	-0.18587784	0.59188063	-1.18374241	0.11066699	0.09500304	-0.14783649	0.24274559	2.12721798	-0.35738906
2063	20.62000000	0.93196588	-0.44236363	0.15883240	0.55906274	0.18956377	0.16225297	0.23702330	-0.11946882	-0.61672184	0.57316764	-0.09218140	-0.98507255	-0.04956052	0.31820998	-2.53773042	-0.01325310	0.62652576	-1.28103566	0.06594086	0.05718832	-0.12772889	0.06560539	2.06603815	-0.68332490
2064	20.63000000	0.92106878	-0.43739682	0.18036405	0.53676658	0.20131754	0.18282907	0.20141812	-0.07908344	-0.63687956	0.74803633	-0.08304341	-0.94387307	-0.30089117	0.31863466	-2.49436656	0.16391874	0.65250349	-1.37770490	0.06709566	0.02455068	-0.11115471	-0.15510716	1.99010998	-0.94465818
2065	20.64000000	0.85791984	-0.40902076	0.21058599	0.50756260	0.22161429	0.20090075	0.20015165	-0.06914037	-0.62321003	0.94548764	-0.07722807	-0.88409521	-0.47618936	0.34150115	-2.48789049	0.31405540	0.65460500	-1.42585661	0.04173104	-0.00243296	-0.09309065	-0.27741107	1.94639447	-1.14825283
2066	20.65000000	0.79927463	-0.36708737	0.24610073	0.48726366	0.23878713	0.20764558	0.17720346	-0.07289963	-0.61271264	1.11293632	-0.07332556	-0.85331555	-0.61647857	0.37803325	-2.48626482	0.43743887	0.64468118	-1.43815668	0.01280075	-0.03952932	-0.08373580	-0.30912918	1.93816739	-1.29208158
2067	20.66000000	0.76582737	-0.34452821	0.28988149	0.47036484	0.21913718	0.20363939	0.15409315	-0.07012508	-0.62150252	1.18819652	-0.07303061	-0.87225902	-0.73616192	0.41116652	-2.47951009	0.53518771	0.61178889	-1.42948338	0.00493581	-0.07237304	-0.07399945	-0.33061782	1.93369295	-1.37930904
2068	20.67000000	0.73582917	-0.31275149	0.32489765	0.45094546	0.16669128	0.19090640	0.16124818	-0.06394219	-0.62252460	1.15705203	-0.08785797	-0.93454210	-0.79765415	0.43277041	-2.45572105	0.58090872	0.55791734	-1.35024539	-0.00758315	-0.08495899	-0.06558846	-0.33484488	1.91790486	-1.41335523
2069	20.68000000	0.74034835	-0.27527191	0.31238986	0.43081291	0.12524509	0.16619493	0.18471559	-0.06009916	-0.61218740	1.08063895	-0.11663913	-1.00597003	-0.78802773	0.45574674	-2.41683155	0.57766425	0.46459321	-1.27810834	0.00168054	-0.10035479	-0.05259729	-0.30932561	1.88563309	-1.37570257
2070	20.69000000	0.75810376	-0.23807290	0.27730646	0.40643994	0.11486296	0.13793648	0.21080372	-0.05067103	-0.58837238	1.01330633	-0.15896959	-1.04445243	-0.67858668	0.47951117	-2.36732070	0.51134937	0.34839590	-1.18189921	-0.04147399	-0.13644036	-0.04463779	-0.33097067	1.85445284	-1.28243775
2071	20.70000000	0.72010430	-0.17834308	0.25744140	0.37560288	0.11888240	0.11404740	0.19752658	-0.03621216	-0.57775641	0.95555877	-0.18743023	-1.03927698	-0.46884453	0.48610167	-2.31990036	0.39252108	0.25202865	-1.06420328	-0.03393242	-0.16030649	-0.04993416	-0.33935227	1.82576651	-1.15689681
2072	20.71000000	0.65559698	-0.13559270	0.26098253	0.33596904	0.11897517	0.08408410	0.15866660	-0.03187658	-0.60030895	0.88941560	-0.18756564	-1.02017281	-0.22801075	0.47379168	-2.28415480	0.24211602	0.17968442	-0.97364897	-0.03078543	-0.18635504	-0.05698840	-0.27654875	1.81052246	-1.03459223
2073	20.72000000	0.61476420	-0.12657401	0.27795471	0.28337855	0.10495025	0.04759940	0.12216581	-0.03496357	-0.61697816	0.79183676	-0.17040716	-0.99030311	0.00173747	0.44507852	-2.24050741	0.09214216	0.13191175	-0.92734826	-0.02722951	-0.21866727	-0.07976071	-0.23844845	1.81326607	-0.92898770
2074	20.73000000	0.52835345	-0.13660850	0.29055559	0.21515887	0.08031913	0.01072393	0.02774887	-0.02304794	-0.61293305	0.65201419	-0.14770824	-0.94259226	0.17261023	0.41263372	-2.18671699	-0.04468238	0.11183499	-0.87682968	-0.00164039	-0.24837267	-0.10076899	-0.21007992	1.78952268	-0.83386535
2075	20.74000000	0.44812751	-0.15410429	0.30211494	0.13818614	0.05803189	-0.02584552	-0.08705549	-0.01175833	-0.61830211	0.46322189	-0.12399630	-0.88313520	0.24355810	0.37726901	-2.12814922	-0.15127742	0.10384791	-0.84486180	0.00596327	-0.27302782	-0.11296990	-0.17373653	1.74639026	-0.76083150
2076	20.75000000	0.45155699	-0.14682514	0.28156627	0.06012085	0.04321527	-0.05242106	-0.14019693	-0.00453847	-0.64032491	0.22470009	-0.08994973	-0.81464536	0.23843334	0.34185251	-2.07848606	-0.25298749	0.09568354	-0.83419628	-0.00485257	-0.30708273	-0.13697573	-0.13889600	1.72251527	-0.70178242
2077	20.76000000	0.48215979	-0.13601167	0.21404477	-0.02452962	0.02782386	-0.08121911	-0.20243722	-0.01122006	-0.67813809	-0.03457019	-0.06645927	-0.74789541	0.21143227	0.32294436	-2.03225286	-0.34735602	0.09132326	-0.80651465	-0.01182170	-0.34861825	-0.18429418	-0.15297798	1.71383159	-0.64365671
